
<svg xmlns="http://www.w3.org/2000/svg" viewBox="0 0 204.9 84.4" enable-background="new 0 0 204.9 84.4"><style type="text/css">.st0{fill:#FFFFFF;} .st1{fill:none;}</style><path class="st0" d="M102.8 2.6l-4 13.3-13.9-.3 11.4 8-4.6 13.1 11.1-8.4 11.1 8.4-4.6-13.1 11.4-8-13.8.3zM188.3 58.1c0 .5.3.8.9 1v.4h-5v-.4c.6-.1.9-.5.9-1v-12.4c0-.5-.3-.9-.9-1v-.4h5.8v.4c-.2 0-.4.1-.5.2-.1.1-.2.2-.2.4 0 .1 0 .3.1.3l.4.4 8.1 8v-8.3c0-.5-.3-.9-.9-1v-.4h5v.4c-.6.1-.9.5-.9 1v12.4c0 .5.3.8.9 1v.4h-5.4v-.4l.4-.1c.1-.1.2-.2.2-.3 0-.3-.1-.5-.4-.7l-.5-.5-8-7.9v8.5zm-16.1-9.4l-2.4 4.9h4.8l-2.4-4.9zm-3.4 7l-.7 1.4c-.3.5-.4.9-.4 1.2 0 .2.1.4.3.5l.6.3v.4h-5.6v-.4c.4-.1.6-.2.8-.4.2-.2.4-.5.6-.9l5.5-11.2c.1-.1.1-.3.2-.5s.1-.4.1-.6c0-.2-.1-.4-.2-.5-.1-.1-.3-.3-.6-.3v-.4h5.9v.4c-.2.1-.4.2-.5.3-.1.1-.2.3-.2.5s0 .4.1.6c0 .2.1.4.3.6l5.7 10.9c.2.4.4.7.6 1 .2.3.5.5 1 .6v.4h-6.2v-.4c.2 0 .4-.1.6-.2.2-.1.3-.3.3-.6 0-.4-.1-.8-.4-1.3l-.8-1.3h-7zm-18.7 1h9.6c.5 0 .8-.3 1-.9h.4v4.5h-.4c-.1-.6-.5-.8-1-.8h-14.1v-.4c.6-.1.9-.5.9-1v-12.4c0-.5-.3-.9-.9-1v-.4h13.7c.5 0 .8-.3 1-.9h.4v4.5h-.4c-.2-.6-.5-.8-1-.8h-9.2v3.3h5.7c.3 0 .5-.1.7-.2.1-.1.3-.4.4-.7h.4v4.4h-.4c-.1-.6-.5-.9-1-.9h-5.7v3.7zm-14.4-.3c1.5 0 2.4-.2 3-.7.5-.4.8-1.1.8-1.9 0-1-.3-1.6-1-2-.7-.4-1.6-.5-2.7-.5h-6.9v5h6.8zm.3-8.1c.9 0 1.6-.1 2.2-.4.5-.3.8-.9.8-1.7 0-.9-.3-1.4-.8-1.7-.5-.3-1.3-.4-2.2-.4h-7.1v4.3h7.1zm7.6 5.8c0 1.9-.7 3.2-2 4.1-1.3.9-3 1.3-5 1.3h-12.6v-.5c.3-.1.5-.2.6-.3.1-.1.2-.4.2-.6v-15.7c0-.3-.1-.5-.2-.6-.1-.1-.4-.3-.7-.3v-.5h12.5c1.9 0 3.5.4 4.7 1.1 1.2.7 1.8 2 1.8 3.8 0 1.8-.8 3.1-2.5 3.9 1 .4 1.8.9 2.3 1.6.6.8.9 1.7.9 2.7m-41.6-3.7c-.9 0-1.8.3-2.6.8-.8.6-1.2 1.3-1.2 2.2 0 .9.4 1.7 1.1 2.3.7.6 1.6.9 2.6.9 1.1 0 2-.2 2.9-.7.9-.5 1.4-1.2 1.4-2.2 0-.9-.5-1.7-1.4-2.3-.9-.7-1.9-1-2.8-1m.8-7c-.8 0-1.4.2-2 .6-.6.4-.8 1-.8 1.7s.3 1.3.8 1.7c.6.4 1.2.6 2 .6s1.4-.2 2-.6c.6-.4.8-1 .8-1.7s-.3-1.3-.8-1.7c-.5-.4-1.2-.6-2-.6m11.5 8.5h-.4c-.1-.4-.2-.7-.4-.7-.6 0-1.2.4-1.8 1.1-.6.7-1 1.4-1.3 2.1.6.6 1 1 1.5 1.2.4.2.8.3 1.2.3.4 0 .7-.2.8-.7h.4v4.3c-1.5-.1-2.6-.2-3.3-.4-.7-.1-1.7-.9-3-2.1-1.8 1.8-4 2.7-6.7 2.7-1.8 0-3.4-.5-4.8-1.5s-2.1-2.3-2.1-4.1c0-1.3.4-2.3 1.1-3.2.7-.9 1.7-1.7 3-2.3-.5-.5-1-1-1.3-1.6-.3-.6-.5-1.2-.5-1.8 0-1.5.6-2.6 1.9-3.4 1.3-.8 2.7-1.2 4.3-1.2 1.6 0 3 .4 4.2 1.2 1.2.8 1.9 2 1.9 3.5 0 .8-.2 1.6-.6 2.1-.4.6-1 1.1-1.8 1.7 1 .6 1.7 1.5 2.2 2.6.8-1.4 1.6-2.5 2.4-3.2.8-.8 1.9-1.4 3.2-1.7v5.1zm-36.7 1.7c-.5 0-.8.3-1 .9h-.4v-4h.4c.1.6.5.9 1 .9h7.2v.4c-.6.2-.9.5-.9 1.1v3.1c0 .3.1.5.2.6.1.2.4.3.6.4v.3c-1.4.7-2.8 1.3-4.2 1.8-1.4.4-2.8.6-4.3.6-1.3 0-2.4-.1-3.5-.4-1.1-.3-2-.7-2.9-1.4-.9-.7-1.6-1.6-2.1-2.7s-.8-2.2-.8-3.4c0-2.4.9-4.3 2.7-5.7 1.8-1.4 4-2.1 6.4-2.1 1 0 2 .1 3.1.4l3.3.9c.2 0 .4-.1.5-.2l.3.2-1.8 3.8-.3-.2c0-.6-.6-1.1-1.9-1.5-1.2-.4-2.3-.6-3.3-.6-1.5 0-2.8.5-3.8 1.4-1.1.9-1.6 2.1-1.6 3.6 0 1.6.5 2.8 1.6 3.7 1 .9 2.4 1.3 4 1.3.9 0 1.8-.1 2.5-.2.8-.1 1.5-.4 2.2-.8v-2.3h-3.2zm-19.7 0c-.5 0-.8.3-1 .9h-.4v-4h.4c.1.6.5.9 1 .9h7.2v.4c-.6.2-.9.5-.9 1.1v3.1c0 .3.1.5.2.6.1.2.4.3.6.4v.3c-1.4.7-2.8 1.3-4.2 1.8-1.4.4-2.8.6-4.3.6-1.3 0-2.4-.1-3.5-.4-1.1-.3-2-.7-2.9-1.4-.9-.7-1.6-1.6-2.1-2.7s-.8-2.2-.8-3.4c0-2.4.9-4.3 2.7-5.7 1.8-1.4 4-2.1 6.4-2.1 1 0 2 .1 3.1.4l3.3.9c.2 0 .4-.1.5-.2l.3.2-1.5 3.8-.3-.2c0-.6-.6-1.1-1.9-1.5-1.2-.4-2.3-.6-3.3-.6-1.5 0-2.8.5-3.8 1.4-1.1.9-1.6 2.1-1.6 3.6 0 1.6.5 2.8 1.6 3.7 1 .9 2.4 1.3 4 1.3.9 0 1.8-.1 2.5-.2.8-.1 1.5-.4 2.2-.8v-2.3h-3.5zm-12.5-8.9c-.3.1-.5.2-.7.4-.1.1-.2.4-.2.7v8c0 2.3-.6 3.9-1.9 4.8-1.3.9-3.2 1.3-5.7 1.3s-4.4-.4-5.7-1.3c-1.3-.8-2-2.4-2-4.8v-8c0-.5-.3-.8-.9-1v-.4h5.4v.4c-.6.2-.9.5-.9 1v7.2c0 1.5.3 2.5 1 3.1.6.6 1.7.9 3.2.9 1.5 0 2.6-.3 3.2-.9.6-.6 1-1.6 1-3v-7.3c0-.3-.1-.5-.2-.7-.1-.2-.4-.3-.7-.4v-.4h5v.4zm-38 2.1v11.3c0 .3.1.5.2.6.1.1.4.3.7.3v.4h-5.5v-.4c.3-.1.5-.2.6-.3.1-.1.2-.4.2-.6v-15.7c0-.3-.1-.5-.2-.6-.1-.1-.4-.3-.7-.3v-.5h7.1v.4c-.2.1-.3.1-.4.2-.1.1-.2.2-.2.4 0 .3.1.5.2.7l5 9.3 5.1-9.1.2-.3c.1-.2.2-.3.2-.5 0-.5-.2-.7-.7-.7v-.4h7v.4c-.3.1-.5.2-.6.3-.1.1-.2.4-.2.6v15.7c0 .3.1.5.2.6.1.1.4.3.7.3v.4h-5.8v-.3c.6-.1.9-.5.9-1v-11.2l-7.2 12.4-6.8-12.4zM8 77.5v.9h2c0 1.3-1.3 2.3-2.5 2.3-1.7 0-3-1.5-3-3.1 0-1.7 1.4-3.1 3.1-3.1.9 0 1.9.5 2.4 1.3l.7-.6c-.8-.9-1.9-1.5-3.1-1.5-2.2 0-4 1.8-4 4 0 2.1 1.7 4 3.9 4s3.7-1.6 3.7-3.7v-.3h-3.2zm7.3-3.8h-1v7.7h1v-7.7zm4 0h-1.1l3.4 8.1 3.3-8.1h-1.1l-2.3 5.7-2.2-5.7zm9.5 0h-1v7.7h1v-7.7zm3.6 7.7h1v-5.7l5.8 6v-8h-1v5.7l-5.8-6v8zm14.4-3.9v.9h2c0 1.3-1.3 2.3-2.5 2.3-1.7 0-3-1.5-3-3.1 0-1.7 1.4-3.1 3.1-3.1.9 0 1.9.5 2.4 1.3l.7-.6c-.8-.9-1.9-1.5-3.1-1.5-2.2 0-4 1.8-4 4 0 2.1 1.7 4 3.9 4s3.7-1.6 3.7-3.7v-.3h-3.2zm13.3.6v3.3h1v-3.3l2.5-4.3h-1.1l-1.9 3.2-1.9-3.3h-1.1l2.5 4.4zm9.9-4.5c-2.2 0-4 1.8-4 4 0 2.3 1.8 4 4 4s4-1.7 4-4c.1-2.2-1.8-4-4-4m0 7.1c-1.7 0-3.1-1.4-3.1-3.1 0-1.7 1.3-3.1 3.1-3.1s3.1 1.4 3.1 3.1c0 1.7-1.4 3.1-3.1 3.1m7.2-7v4.9c0 1.7 1.1 3 2.8 3 1.8 0 2.8-1.3 2.8-3v-4.9h-1v4.5c0 1.3-.4 2.4-1.9 2.4s-1.9-1.2-1.9-2.4v-4.5h-.8zm18.1 7.9l2.3-5.2.9 5.1h1l-1.6-8-2.7 6.1-2.6-6.1-1.6 8h1l.9-5.1 2.4 5.2zm10.9-8c-2.2 0-4 1.8-4 4 0 2.3 1.8 4 4 4s4-1.7 4-4c0-2.2-1.8-4-4-4m0 7.1c-1.7 0-3.1-1.4-3.1-3.1 0-1.7 1.3-3.1 3.1-3.1s3.1 1.4 3.1 3.1c0 1.7-1.5 3.1-3.1 3.1m9.6-2.6c1.1-.1 1.9-1 1.9-2.2 0-.7-.4-1.5-1-1.8-.6-.3-1.4-.4-2-.4h-1.2v7.7h1v-3.3h.4l2.3 3.3h1.2l-2.6-3.3zm-1.4-3.5h.3c1 0 2.1.2 2.1 1.4s-1.1 1.4-2 1.4h-.3v-2.8zm6.9 6.8h4.1v-.9h-3.2v-2.9h3.1v-.9h-3.1v-2.2h3.2v-.9h-4.1v7.8zm17.5-1.9l.9 1.9h1l-3.7-8-3.7 8h1l.9-1.9h3.6zm-.4-.9h-2.7l1.4-3.1 1.3 3.1zm5.2 2.8h1v-5.7l5.8 6v-8h-1v5.7l-5.8-6v8zm10.3 0h1.6c2.4 0 4.4-1.3 4.4-3.9 0-2.6-2-3.8-4.3-3.8h-1.6v7.7zm1-6.8h.3c2 0 3.7.7 3.7 3 0 2.2-1.7 3-3.7 3h-.3v-6zm17.1 7l2.3-5.2.9 5.1h1l-1.6-8-2.7 6.1-2.6-6.1-1.6 8h1l.9-5.1 2.4 5.2zm10.8-8c-2.2 0-4 1.8-4 4 0 2.3 1.8 4 4 4s4-1.7 4-4c.1-2.2-1.8-4-4-4m0 7.1c-1.7 0-3.1-1.4-3.1-3.1 0-1.7 1.3-3.1 3.1-3.1s3.1 1.4 3.1 3.1c0 1.7-1.4 3.1-3.1 3.1m9.7-2.6c1.1-.1 1.9-1 1.9-2.2 0-.7-.4-1.5-1-1.8-.6-.3-1.4-.4-2-.4h-1.2v7.7h1v-3.3h.4l2.3 3.3h1.2l-2.6-3.3zm-1.4-3.5h.3c1 0 2.1.2 2.1 1.4s-1.1 1.4-2 1.4h-.3v-2.8zm6.9 6.8h4.1v-.9h-3.2v-2.9h3.1v-.9h-3.1v-2.2h3.2v-.9h-4.1v7.8z"/><path class="st1" d="M2.8 2.6h199.3v79.2h-199.3z"/></svg>